<svg width="436" height="31" viewBox="0 0 436 31" fill="none" xmlns="http://www.w3.org/2000/svg">
<path d="M18.0254 30.9082C14.133 30.9082 10.8675 30.4511 8.229 29.5367C5.61662 28.5963 3.67039 27.3162 2.39033 25.6965C1.13639 24.0507 0.522476 22.1698 0.5486 20.0538H16.3796C16.4319 20.5501 16.5102 20.9551 16.6147 21.2685C16.7454 21.5559 16.9413 21.791 17.2025 21.9739C17.4638 22.1306 17.8034 22.209 18.2214 22.209C18.6655 22.209 18.992 22.0914 19.201 21.8563C19.41 21.6212 19.5145 21.3469 19.5145 21.0334C19.5145 20.7983 19.4361 20.5893 19.2794 20.4065C19.1226 20.2236 18.8353 20.0669 18.4173 19.9362C18.0254 19.8056 17.4376 19.6489 16.6539 19.466C16.5494 19.466 16.4449 19.4529 16.3404 19.4268C16.2621 19.4007 16.1706 19.3876 16.0661 19.3876C15.8833 19.3615 15.7004 19.3484 15.5175 19.3484C15.3608 19.3223 15.1779 19.2962 14.9689 19.2701C11.0504 18.8782 8.05919 18.2774 5.99541 17.4675C3.95776 16.6316 2.58626 15.6258 1.88091 14.4502C1.17557 13.2485 0.8229 11.7464 0.8229 9.94388C0.8229 8.11521 1.3715 6.45635 2.4687 4.96729C3.5659 3.47823 5.39457 2.2896 7.9547 1.40139C10.5148 0.487058 13.8717 0.0298909 18.0254 0.0298909C23.9033 0.0298909 28.1484 0.996472 30.7608 2.92963C33.3993 4.83667 34.7708 7.38374 34.8753 10.5708H19.7104C19.632 9.94388 19.4753 9.47365 19.2402 9.16016C19.0312 8.82055 18.6524 8.65075 18.1038 8.65075C17.7903 8.65075 17.5421 8.703 17.3593 8.80749C17.1764 8.91199 17.0458 9.04261 16.9674 9.19935C16.9152 9.35609 16.889 9.52589 16.889 9.70876C16.889 9.91775 16.9152 10.0876 16.9674 10.2182C17.0197 10.3488 17.1503 10.4794 17.3593 10.61C17.5944 10.7407 17.9209 10.8451 18.3389 10.9235C18.3912 10.9235 18.4434 10.9366 18.4957 10.9627C18.5479 10.9627 18.6002 10.9627 18.6524 10.9627C23.3808 11.3807 26.9859 12.0077 29.4677 12.8436C31.9755 13.6796 33.6736 14.7245 34.5618 15.9785C35.45 17.2063 35.8941 18.7607 35.8941 20.6416C35.8941 22.8621 35.228 24.743 33.8956 26.2843C32.5894 27.7995 30.604 28.9489 27.9394 29.7327C25.3009 30.5164 21.9962 30.9082 18.0254 30.9082ZM38.0371 0.813607H56.1801L60.6864 13.1963L60.8432 13.9016H60.8823L61.0783 13.1963L65.5454 0.813607H83.7276V29.9678H69.1505V17.1149L69.2289 15.8609H69.1897L68.9546 16.8406L65.6238 26.7545H56.1801L52.8101 16.8406L52.575 15.8609H52.5358L52.6142 17.1149V29.9678H38.0371V0.813607ZM106.026 30.9082C101.637 30.9082 97.9408 30.3466 94.9366 29.2232C91.9323 28.0999 89.6595 26.4541 88.1182 24.2858C86.5769 22.0914 85.8063 19.4138 85.8063 16.2528V14.6853C85.8063 11.5244 86.5769 8.85974 88.1182 6.69146C89.6595 4.49706 91.9323 2.8382 94.9366 1.71488C97.9669 0.591553 101.663 0.0298909 106.026 0.0298909C110.415 0.0298909 114.111 0.591553 117.116 1.71488C120.146 2.81208 122.432 4.45788 123.973 6.65228C125.514 8.82055 126.285 11.4982 126.285 14.6853V16.2528C126.285 19.4399 125.501 22.1176 123.934 24.2858C122.393 26.4541 120.12 28.0999 117.116 29.2232C114.111 30.3466 110.415 30.9082 106.026 30.9082ZM106.026 19.3484C106.496 19.3484 106.901 19.244 107.241 19.035C107.58 18.826 107.829 18.5125 107.985 18.0945C108.142 17.6765 108.221 17.1671 108.221 16.5663V14.3327C108.221 13.758 108.129 13.2747 107.946 12.8828C107.789 12.4648 107.541 12.1513 107.202 11.9423C106.888 11.7072 106.496 11.5897 106.026 11.5897C105.556 11.5897 105.151 11.7072 104.811 11.9423C104.498 12.1513 104.25 12.4648 104.067 12.8828C103.91 13.2747 103.832 13.758 103.832 14.3327V16.5663C103.832 17.1671 103.91 17.6765 104.067 18.0945C104.25 18.5125 104.498 18.826 104.811 19.035C105.151 19.244 105.556 19.3484 106.026 19.3484ZM128.348 0.813607H146.138V10.4925H146.452L148.842 0.813607H167.416L161.499 14.8813V15.1948L168.435 29.9678H149.351L146.452 20.3673H146.138V29.9678H128.348V0.813607ZM170.174 0.813607H201.366V10.2182H187.964V12.0207H199.798V18.6039H187.964V20.524H201.836V29.9678H170.174V0.813607ZM221.797 0.813607H239.94L244.446 13.1963L244.603 13.9016H244.642L244.838 13.1963L249.305 0.813607H267.487V29.9678H252.91V17.1149L252.988 15.8609H252.949L252.714 16.8406L249.383 26.7545H239.94L236.57 16.8406L236.335 15.8609H236.295L236.374 17.1149V29.9678H221.797V0.813607ZM270.702 0.813607H301.894V10.2182H288.493V12.0207H300.327V18.6039H288.493V20.524H302.364V29.9678H270.702V0.813607ZM341.408 30.9082C337.019 30.9082 333.323 30.3466 330.319 29.2232C327.314 28.0999 325.042 26.4541 323.5 24.2858C321.959 22.0914 321.188 19.4138 321.188 16.2528V14.6853C321.188 11.5244 321.959 8.85974 323.5 6.69146C325.042 4.49706 327.314 2.8382 330.319 1.71488C333.349 0.591553 337.046 0.0298909 341.408 0.0298909C345.797 0.0298909 349.494 0.591553 352.498 1.71488C355.528 2.81208 357.814 4.45788 359.355 6.65228C360.897 8.82055 361.667 11.4982 361.667 14.6853V16.2528C361.667 19.4399 360.884 22.1176 359.316 24.2858C357.775 26.4541 355.502 28.0999 352.498 29.2232C349.494 30.3466 345.797 30.9082 341.408 30.9082ZM341.408 19.3484C341.878 19.3484 342.283 19.244 342.623 19.035C342.963 18.826 343.211 18.5125 343.368 18.0945C343.524 17.6765 343.603 17.1671 343.603 16.5663V14.3327C343.603 13.758 343.511 13.2747 343.328 12.8828C343.172 12.4648 342.923 12.1513 342.584 11.9423C342.27 11.7072 341.878 11.5897 341.408 11.5897C340.938 11.5897 340.533 11.7072 340.193 11.9423C339.88 12.1513 339.632 12.4648 339.449 12.8828C339.292 13.2747 339.214 13.758 339.214 14.3327V16.5663C339.214 17.1671 339.292 17.6765 339.449 18.0945C339.632 18.5125 339.88 18.826 340.193 19.035C340.533 19.244 340.938 19.3484 341.408 19.3484ZM363.73 0.813607H388.104C390.742 0.813607 393.106 1.28384 395.196 2.22429C397.312 3.16475 398.958 4.52319 400.134 6.29961C401.335 8.0499 401.936 10.1398 401.936 12.5693V12.7261C401.936 15.1556 401.361 17.2847 400.212 19.1133C399.062 20.942 397.456 22.3657 395.392 23.3846C393.354 24.3773 391.029 24.8736 388.417 24.8736H381.52V29.9678H363.73V0.813607ZM382.618 15.1164C383.166 15.1164 383.623 14.9335 383.989 14.5678C384.355 14.1759 384.538 13.6404 384.538 12.9612V12.8044C384.538 12.1513 384.342 11.6419 383.95 11.2762C383.584 10.8843 383.114 10.6884 382.539 10.6884H381.52V15.1164H382.618ZM410.22 10.9627H402.696V0.813607H435.494V10.9627H427.971V29.9678H410.22V10.9627Z" fill="white"/>
</svg>
