<svg width="441" height="212" viewBox="0 0 441 212" fill="none" xmlns="http://www.w3.org/2000/svg">
<path d="M17.9247 211.292C14.3995 211.292 11.2454 210.55 8.46236 209.065C5.86485 207.581 3.82395 205.447 2.33966 202.664C1.0409 199.881 0.391524 196.635 0.391524 192.924V125.017H17.0898V192.924C17.0898 193.48 17.0898 194.037 17.0898 194.594C17.2753 194.965 17.4609 195.336 17.6464 195.707C17.832 195.892 18.1103 195.985 18.4813 195.985C18.8524 195.985 19.1307 195.707 19.3162 195.15C19.6873 194.594 19.8729 193.851 19.8729 192.924V123.904C19.8729 120.936 19.5018 118.524 18.7596 116.668C18.203 114.627 17.3681 112.958 16.2549 111.659C15.1417 110.174 13.8429 108.783 12.3586 107.484C12.1731 107.299 11.9876 107.206 11.802 107.206C11.802 107.02 11.7092 106.835 11.5237 106.649C11.5237 106.649 11.4309 106.649 11.2454 106.649C11.2454 106.464 11.2454 106.371 11.2454 106.371C9.01897 104.516 7.16361 102.66 5.67931 100.805C4.19502 98.9495 2.89627 96.4448 1.78305 93.2907C0.855365 89.951 0.391524 85.8692 0.391524 81.0453V18.4267C0.391524 14.716 1.0409 11.4691 2.33966 8.68604C3.82395 5.90299 5.86485 3.86209 8.46236 2.56334C11.2454 1.07904 14.3995 0.336894 17.9247 0.336894C23.6764 0.336894 28.222 2.00672 31.5617 5.34638C34.9013 8.68604 36.5711 13.0461 36.5711 18.4267V79.6537H19.8729V18.4267C19.8729 17.499 19.6873 16.8496 19.3162 16.4786C19.1307 16.1075 18.8524 15.922 18.4813 15.922C18.2958 15.922 18.0175 16.0147 17.6464 16.2003C17.4609 16.3858 17.2753 16.6641 17.0898 17.0352C17.0898 17.4063 17.0898 17.8701 17.0898 18.4267V79.932C17.0898 82.7151 17.3681 85.1271 17.9247 87.168C18.6669 89.0233 19.5018 90.6004 20.4295 91.8992C21.5427 93.1979 22.9342 94.5894 24.604 96.0737C24.7896 96.2593 24.8823 96.4448 24.8823 96.6303C25.0679 96.6303 25.2534 96.7231 25.4389 96.9086C28.0365 99.3206 30.0774 101.547 31.5617 103.588C33.0459 105.443 34.2519 107.855 35.1796 110.824C36.1073 113.792 36.5711 117.503 36.5711 121.956V192.924C36.5711 196.635 35.829 199.881 34.3447 202.664C32.8604 205.447 30.634 207.581 27.6654 209.065C24.8823 210.55 21.6355 211.292 17.9247 211.292ZM39.2563 2.28503H59.016L64.8604 112.772L65.1387 141.437H65.6953L65.9736 112.772L71.818 2.28503H91.5776V209.344H76.2709V155.909L81.2804 40.9694H80.7237L79.8888 55.9979L72.9312 172.886H57.9028L50.9451 55.9979L50.1102 40.9694H49.5536L54.5631 155.909V209.344H39.2563V2.28503ZM112.518 211.292C108.807 211.292 105.56 210.55 102.777 209.065C100.18 207.396 98.1388 205.076 96.6545 202.108C95.1702 199.139 94.4281 195.707 94.4281 191.811V19.8182C94.4281 15.922 95.1702 12.4895 96.6545 9.52095C98.1388 6.55237 100.18 4.32593 102.777 2.84164C105.56 1.17181 108.807 0.336894 112.518 0.336894C116.229 0.336894 119.383 1.17181 121.98 2.84164C124.763 4.32593 126.897 6.55237 128.381 9.52095C129.866 12.4895 130.608 15.922 130.608 19.8182V191.811C130.608 195.707 129.866 199.139 128.381 202.108C126.897 205.076 124.763 207.396 121.98 209.065C119.383 210.55 116.229 211.292 112.518 211.292ZM112.518 195.985C112.889 195.985 113.167 195.892 113.353 195.707C113.538 195.521 113.631 195.243 113.631 194.872C113.817 194.315 113.909 193.759 113.909 193.202V18.1484C113.909 17.5918 113.817 17.1279 113.631 16.7569C113.631 16.3858 113.538 16.1075 113.353 15.922C113.167 15.7364 112.889 15.6437 112.518 15.6437C112.147 15.6437 111.869 15.7364 111.683 15.922C111.497 16.1075 111.312 16.3858 111.126 16.7569C111.126 17.1279 111.126 17.5918 111.126 18.1484V193.202C111.126 193.759 111.126 194.315 111.126 194.872C111.312 195.243 111.497 195.521 111.683 195.707C111.869 195.892 112.147 195.985 112.518 195.985ZM133.293 2.28503H149.991V97.7436H150.548L155.279 2.28503H172.812L165.576 103.031V103.31L172.812 209.344H155.279L150.548 108.319H149.991V209.344H133.293V2.28503ZM174.332 2.28503H199.936V17.5918H191.03V93.569H198.823V108.876H191.03V194.037H199.936V209.344H174.332V2.28503ZM222.166 2.28503H241.925L247.77 112.772L248.048 141.437H248.605L248.883 112.772L254.727 2.28503H274.487V209.344H259.18V155.909L264.19 40.9694H263.633L262.798 55.9979L255.84 172.886H240.812L233.854 55.9979L233.019 40.9694H232.463L237.472 155.909V209.344H222.166V2.28503ZM277.337 2.28503H302.941V17.5918H294.036V93.569H301.828V108.876H294.036V194.037H302.941V209.344H277.337V2.28503ZM343.261 211.292C339.55 211.292 336.303 210.55 333.52 209.065C330.923 207.396 328.882 205.076 327.397 202.108C325.913 199.139 325.171 195.707 325.171 191.811V19.8182C325.171 15.922 325.913 12.4895 327.397 9.52095C328.882 6.55237 330.923 4.32593 333.52 2.84164C336.303 1.17181 339.55 0.336894 343.261 0.336894C346.971 0.336894 350.126 1.17181 352.723 2.84164C355.506 4.32593 357.64 6.55237 359.124 9.52095C360.608 12.4895 361.351 15.922 361.351 19.8182V191.811C361.351 195.707 360.608 199.139 359.124 202.108C357.64 205.076 355.506 207.396 352.723 209.065C350.126 210.55 346.971 211.292 343.261 211.292ZM343.261 195.985C343.632 195.985 343.91 195.892 344.096 195.707C344.281 195.521 344.374 195.243 344.374 194.872C344.56 194.315 344.652 193.759 344.652 193.202V18.1484C344.652 17.5918 344.56 17.1279 344.374 16.7569C344.374 16.3858 344.281 16.1075 344.096 15.922C343.91 15.7364 343.632 15.6437 343.261 15.6437C342.89 15.6437 342.611 15.7364 342.426 15.922C342.24 16.1075 342.055 16.3858 341.869 16.7569C341.869 17.1279 341.869 17.5918 341.869 18.1484V193.202C341.869 193.759 341.869 194.315 341.869 194.872C342.055 195.243 342.24 195.521 342.426 195.707C342.611 195.892 342.89 195.985 343.261 195.985ZM364.036 2.28503H382.126C386.022 2.28503 389.269 3.02718 391.866 4.51146C394.649 5.81022 396.69 7.85112 397.989 10.6342C399.473 13.4172 400.215 16.7569 400.215 20.6531V124.739C400.215 128.635 399.473 131.975 397.989 134.758C396.69 137.541 394.649 139.675 391.866 141.159C389.083 142.458 385.744 143.107 381.847 143.107H380.734V209.344H364.036V2.28503ZM381.847 127.522C382.404 127.522 382.775 127.337 382.961 126.966C383.332 126.409 383.517 125.667 383.517 124.739V20.6531C383.517 19.7255 383.332 18.9833 382.961 18.4267C382.775 17.8701 382.404 17.5918 381.847 17.5918H380.734V127.522H381.847ZM414.007 18.9833H403.988V2.28503H441.002V18.9833H430.705V209.344H414.007V18.9833Z" fill="white"/>
</svg>
