<svg width="437" height="45" viewBox="0 0 437 45" fill="none" xmlns="http://www.w3.org/2000/svg">
<path d="M18.6887 44.0865C14.7194 44.0865 11.3933 43.5536 8.71037 42.4877C6.02743 41.3851 4.00604 39.768 2.64619 37.6364C1.28634 35.468 0.606418 32.7667 0.606418 29.5324V29.4773H16.7041C16.7408 30.1388 16.8143 30.6901 16.9246 31.1312C17.0348 31.5354 17.237 31.8478 17.531 32.0684C17.825 32.2521 18.2109 32.344 18.6887 32.344C19.1665 32.344 19.5156 32.2154 19.7362 31.9581C19.9934 31.6641 20.1221 31.3333 20.1221 30.9658C20.1221 30.5615 20.0118 30.2307 19.7913 29.9735C19.6075 29.7162 19.2033 29.4405 18.5785 29.1465C17.9537 28.8525 16.9797 28.4298 15.6566 27.8786C15.4361 27.7683 15.1788 27.658 14.8848 27.5478C14.6275 27.4375 14.3703 27.3273 14.113 27.217C13.966 27.1803 13.819 27.1435 13.672 27.1067C13.525 27.0332 13.378 26.9781 13.2309 26.9414C9.7762 25.9123 7.14839 24.8097 5.34751 23.6336C3.58338 22.4575 2.37054 21.1528 1.709 19.7195C1.0842 18.2494 0.753429 16.3934 0.716676 14.1514V14.0963C0.716676 11.3766 1.3966 9.04283 2.75645 7.09494C4.11629 5.1103 6.13769 3.58506 8.82063 2.51924C11.5036 1.45341 14.7562 0.920499 18.5785 0.920499C24.3854 0.920499 28.7406 2.20684 31.644 4.77952C34.5475 7.35221 35.9992 10.954 35.9992 15.5848H20.5631C20.5263 14.5557 20.3426 13.8207 20.0118 13.3796C19.7178 12.9386 19.24 12.7181 18.5785 12.7181C18.2109 12.7181 17.9353 12.7916 17.7515 12.9386C17.5678 13.0489 17.4207 13.2143 17.3105 13.4348C17.237 13.6185 17.2002 13.8207 17.2002 14.0412V14.0963C17.237 14.4271 17.3289 14.7211 17.4759 14.9784C17.6596 15.1989 17.9353 15.4378 18.3028 15.6951C18.7071 15.9523 19.2216 16.1912 19.8464 16.4117C19.9199 16.4485 19.9934 16.4852 20.0669 16.522C20.1772 16.5587 20.2691 16.5771 20.3426 16.5771C24.8264 17.79 28.2444 19.0579 30.5966 20.381C32.9855 21.7041 34.621 23.1926 35.503 24.8465C36.3851 26.5003 36.8261 28.5401 36.8261 30.9658C36.8261 33.7222 36.0911 36.0928 34.621 38.0774C33.1509 40.0621 31.056 41.5689 28.3363 42.598C25.6166 43.5903 22.4007 44.0865 18.6887 44.0865ZM39.1243 1.96795H58.5297L62.6093 21.4285L62.7746 22.6964H62.8849L63.0503 21.4285L67.1298 1.96795H86.5352V42.9839H70.9337V25.3426L71.044 21.9798H70.9337L70.603 23.5785L67.2401 38.3531H58.4195L55.1117 23.5785L54.7258 21.9798H54.6156L54.7258 25.3426V42.9839H39.1243V1.96795ZM108.307 44.0865C104.117 44.0865 100.607 43.4065 97.7772 42.0467C94.9473 40.6868 92.7972 38.6655 91.3271 35.9825C89.857 33.2996 89.122 29.9918 89.122 26.0593V18.9477C89.122 15.0151 89.857 11.7258 91.3271 9.07958C92.7972 6.39664 94.9473 4.37525 97.7772 3.0154C100.644 1.6188 104.154 0.920499 108.307 0.920499C112.46 0.920499 115.97 1.60042 118.836 2.96027C121.703 4.32012 123.872 6.34151 125.342 9.02445C126.812 11.7074 127.547 15.0151 127.547 18.9477V26.0593C127.547 30.0286 126.812 33.3547 125.342 36.0376C123.872 38.6838 121.703 40.6868 118.836 42.0467C116.007 43.4065 112.497 44.0865 108.307 44.0865ZM108.307 30.635C108.711 30.635 109.06 30.5431 109.354 30.3594C109.648 30.1756 109.869 29.8999 110.016 29.5324C110.163 29.1281 110.236 28.6136 110.236 27.9888V17.0733C110.236 16.4852 110.163 15.9891 110.016 15.5848C109.869 15.1805 109.648 14.8865 109.354 14.7027C109.06 14.4822 108.711 14.372 108.307 14.372C107.903 14.372 107.553 14.4822 107.259 14.7027C107.002 14.8865 106.8 15.1805 106.653 15.5848C106.506 15.9891 106.432 16.4852 106.432 17.0733V27.9888C106.432 28.6136 106.506 29.1281 106.653 29.5324C106.8 29.8999 107.002 30.1756 107.259 30.3594C107.553 30.5431 107.903 30.635 108.307 30.635ZM130.162 1.96795H147.308V15.6951H147.638L150.946 1.96795H168.918L161.421 21.5939V21.9246L169.69 42.9839H151.497L147.638 28.3747H147.308V42.9839H130.162V1.96795ZM171.401 1.96795H201.667V14.3168H188.547V17.0182H200.234V27.658H188.547V30.4145H202.219V42.9839H171.401V1.96795ZM223.139 1.96795H242.544L246.624 21.4285L246.789 22.6964H246.899L247.065 21.4285L251.144 1.96795H270.55V42.9839H254.948V25.3426L255.058 21.9798H254.948L254.617 23.5785L251.254 38.3531H242.434L239.126 23.5785L238.74 21.9798H238.63L238.74 25.3426V42.9839H223.139V1.96795ZM273.853 1.96795H304.119V14.3168H290.998V17.0182H302.685V27.658H290.998V30.4145H304.67V42.9839H273.853V1.96795ZM344.058 44.0865C339.869 44.0865 336.359 43.4065 333.529 42.0467C330.699 40.6868 328.549 38.6655 327.079 35.9825C325.609 33.2996 324.874 29.9918 324.874 26.0593V18.9477C324.874 15.0151 325.609 11.7258 327.079 9.07958C328.549 6.39664 330.699 4.37525 333.529 3.0154C336.396 1.6188 339.905 0.920499 344.058 0.920499C348.212 0.920499 351.721 1.60042 354.588 2.96027C357.455 4.32012 359.623 6.34151 361.093 9.02445C362.563 11.7074 363.298 15.0151 363.298 18.9477V26.0593C363.298 30.0286 362.563 33.3547 361.093 36.0376C359.623 38.6838 357.455 40.6868 354.588 42.0467C351.758 43.4065 348.248 44.0865 344.058 44.0865ZM344.058 30.635C344.463 30.635 344.812 30.5431 345.106 30.3594C345.4 30.1756 345.62 29.8999 345.767 29.5324C345.914 29.1281 345.988 28.6136 345.988 27.9888V17.0733C345.988 16.4852 345.914 15.9891 345.767 15.5848C345.62 15.1805 345.4 14.8865 345.106 14.7027C344.812 14.4822 344.463 14.372 344.058 14.372C343.654 14.372 343.305 14.4822 343.011 14.7027C342.754 14.8865 342.552 15.1805 342.405 15.5848C342.258 15.9891 342.184 16.4852 342.184 17.0733V27.9888C342.184 28.6136 342.258 29.1281 342.405 29.5324C342.552 29.8999 342.754 30.1756 343.011 30.3594C343.305 30.5431 343.654 30.635 344.058 30.635ZM365.914 1.96795H387.139C390.52 1.96795 393.405 2.57437 395.794 3.7872C398.22 4.96329 400.076 6.72741 401.362 9.07958C402.648 11.4318 403.292 14.3352 403.292 17.79V18.7271C403.292 22.2186 402.685 25.1772 401.472 27.6029C400.259 30.0286 398.55 31.8662 396.345 33.1158C394.14 34.3286 391.512 34.9351 388.462 34.9351H383.059V42.9839H365.914V1.96795ZM383.996 22.3105C384.731 22.3105 385.301 22.0533 385.705 21.5387C386.11 21.0242 386.312 20.1237 386.312 18.8374V18.1207C386.312 16.7976 386.11 15.8972 385.705 15.4194C385.301 14.9049 384.731 14.6476 383.996 14.6476H383.059V22.3105H383.996ZM411.773 14.813H404.22V1.96795H436.526V14.813H428.918V42.9839H411.773V14.813Z" fill="white"/>
</svg>
