<svg width="436" height="30" viewBox="0 0 436 30" fill="none" xmlns="http://www.w3.org/2000/svg">
<path d="M17.8721 29.1895C13.9879 29.1895 10.7352 28.7487 8.11394 27.867C5.51653 26.9614 3.59825 25.7581 2.35912 24.2568C1.11999 22.7317 0.512334 21.0279 0.536164 19.1454H16.2994C16.347 19.5981 16.4304 19.9675 16.5496 20.2534C16.6926 20.5394 16.8832 20.7658 17.1215 20.9326C17.3836 21.0756 17.7172 21.147 18.1223 21.147C18.5513 21.147 18.861 21.0398 19.0517 20.8254C19.2662 20.5871 19.3734 20.3249 19.3734 20.039C19.3734 19.8245 19.3019 19.6458 19.1589 19.5028C19.0159 19.336 18.7657 19.2049 18.4083 19.1096C18.0508 18.9905 17.5623 18.9071 16.9428 18.8594C16.8713 18.8594 16.7998 18.8594 16.7283 18.8594C16.6568 18.8356 16.5734 18.8237 16.4781 18.8237C16.2875 18.7998 16.0968 18.7879 15.9062 18.7879C15.7394 18.7879 15.5607 18.776 15.37 18.7522C11.319 18.4901 8.23309 17.9896 6.11227 17.2509C4.01527 16.4884 2.60933 15.5471 1.89445 14.4271C1.17956 13.3071 0.822118 11.8893 0.822118 10.1736C0.822118 8.52933 1.34637 7.02807 2.39486 5.66979C3.44336 4.28768 5.23058 3.16769 7.7565 2.30983C10.3063 1.42814 13.69 0.987291 17.9079 0.987291C23.7938 0.987291 28.0235 1.8809 30.5971 3.66811C33.1707 5.43149 34.517 7.75487 34.6362 10.6382H19.5164C19.4449 10.0902 19.3019 9.67314 19.0874 9.38719C18.8968 9.07741 18.5394 8.92251 18.0151 8.92251C17.7053 8.92251 17.4551 8.97017 17.2645 9.06549C17.0738 9.16081 16.9428 9.27996 16.8713 9.42294C16.8236 9.56591 16.7998 9.7208 16.7998 9.88761C16.7998 10.0544 16.8117 10.1974 16.8355 10.3165C16.8832 10.4357 16.9904 10.5548 17.1572 10.674C17.3479 10.7693 17.6338 10.8289 18.0151 10.8527C18.0628 10.8765 18.1104 10.8884 18.1581 10.8884C18.2057 10.8884 18.2534 10.8884 18.3011 10.8884C23.067 11.1267 26.7129 11.6152 29.2388 12.354C31.7647 13.0927 33.4685 14.0339 34.3502 15.1778C35.2319 16.3216 35.6728 17.7752 35.6728 19.5386C35.6728 21.6594 35.0294 23.4347 33.7426 24.8645C32.4558 26.2942 30.4898 27.3785 27.8448 28.1172C25.2235 28.8321 21.8993 29.1895 17.8721 29.1895ZM37.8065 1.70218H55.5714L60.2539 12.4612L60.4326 12.9974H60.4684L60.6471 12.4612L65.3296 1.70218H83.0945V28.2959H68.761V16.679L68.8325 15.9284H68.7968L68.6181 16.6075L65.2581 25.4006H55.6786L52.2829 16.6075L52.1042 15.9284H52.0685L52.14 16.679V28.2959H37.8065V1.70218ZM105.521 29.1895C101.089 29.1895 97.3477 28.6653 94.2975 27.6168C91.2712 26.5444 88.9716 24.9717 87.3989 22.8985C85.85 20.8254 85.0755 18.2756 85.0755 15.2492V14.8918C85.0755 11.8893 85.85 9.35145 87.3989 7.27828C88.9716 5.20511 91.2831 3.64428 94.3333 2.59578C97.3834 1.52346 101.125 0.987291 105.557 0.987291C109.989 0.987291 113.719 1.52346 116.745 2.59578C119.795 3.64428 122.095 5.20511 123.644 7.27828C125.216 9.35145 126.003 11.8893 126.003 14.8918V15.2492C126.003 18.2756 125.216 20.8254 123.644 22.8985C122.095 24.9717 119.795 26.5444 116.745 27.6168C113.695 28.6653 109.953 29.1895 105.521 29.1895ZM105.521 18.0373C106.022 18.0373 106.439 17.9301 106.772 17.7156C107.13 17.5011 107.392 17.1914 107.559 16.7862C107.725 16.3573 107.809 15.845 107.809 15.2492V14.8918C107.809 14.2961 107.714 13.7956 107.523 13.3905C107.356 12.9854 107.106 12.6757 106.772 12.4612C106.439 12.2467 106.022 12.1395 105.521 12.1395C105.045 12.1395 104.628 12.2467 104.27 12.4612C103.937 12.6757 103.686 12.9854 103.52 13.3905C103.353 13.7956 103.269 14.2961 103.269 14.8918V15.2492C103.269 15.845 103.353 16.3573 103.52 16.7862C103.686 17.1914 103.937 17.5011 104.27 17.7156C104.628 17.9301 105.045 18.0373 105.521 18.0373ZM127.97 1.70218H145.878V10.4953H146.2L148.38 1.70218H167.11L161.498 14.5701V14.8918L168.147 28.2959H148.916L146.2 19.7888H145.878V28.2959H127.97V1.70218ZM169.928 1.70218H201.311V10.4595H187.835V12.068H199.738V17.7871H187.835V19.5386H201.776V28.2959H169.928V1.70218ZM221.519 1.70218H239.284L243.967 12.4612L244.146 12.9974H244.181L244.36 12.4612L249.042 1.70218H266.807V28.2959H252.474V16.679L252.545 15.9284H252.51L252.331 16.6075L248.971 25.4006H239.392L235.996 16.6075L235.817 15.9284H235.781L235.853 16.679V28.2959H221.519V1.70218ZM270.039 1.70218H301.423V10.4595H287.947V12.068H299.85V17.7871H287.947V19.5386H301.888V28.2959H270.039V1.70218ZM340.826 29.1895C336.394 29.1895 332.652 28.6653 329.602 27.6168C326.576 26.5444 324.276 24.9717 322.704 22.8985C321.155 20.8254 320.38 18.2756 320.38 15.2492V14.8918C320.38 11.8893 321.155 9.35145 322.704 7.27828C324.276 5.20511 326.588 3.64428 329.638 2.59578C332.688 1.52346 336.429 0.987291 340.862 0.987291C345.294 0.987291 349.023 1.52346 352.05 2.59578C355.1 3.64428 357.399 5.20511 358.948 7.27828C360.521 9.35145 361.307 11.8893 361.307 14.8918V15.2492C361.307 18.2756 360.521 20.8254 358.948 22.8985C357.399 24.9717 355.1 26.5444 352.05 27.6168C348.999 28.6653 345.258 29.1895 340.826 29.1895ZM340.826 18.0373C341.326 18.0373 341.743 17.9301 342.077 17.7156C342.434 17.5011 342.696 17.1914 342.863 16.7862C343.03 16.3573 343.113 15.845 343.113 15.2492V14.8918C343.113 14.2961 343.018 13.7956 342.828 13.3905C342.661 12.9854 342.411 12.6757 342.077 12.4612C341.743 12.2467 341.326 12.1395 340.826 12.1395C340.349 12.1395 339.932 12.2467 339.575 12.4612C339.241 12.6757 338.991 12.9854 338.824 13.3905C338.657 13.7956 338.574 14.2961 338.574 14.8918V15.2492C338.574 15.845 338.657 16.3573 338.824 16.7862C338.991 17.1914 339.241 17.5011 339.575 17.7156C339.932 17.9301 340.349 18.0373 340.826 18.0373ZM363.275 1.70218H388.296C390.798 1.70218 393.062 2.14302 395.087 3.02471C397.113 3.90641 398.709 5.16937 399.877 6.81361C401.068 8.45784 401.664 10.3761 401.664 12.5684C401.664 14.7607 401.092 16.7148 399.948 18.4305C398.804 20.1224 397.22 21.4449 395.194 22.3981C393.193 23.3513 390.929 23.8279 388.403 23.8279H381.183V28.2959H363.275V1.70218ZM382.326 14.7131C382.827 14.7131 383.256 14.5344 383.613 14.1769C383.971 13.8195 384.149 13.3667 384.149 12.8186C384.149 12.2944 383.959 11.8655 383.577 11.5318C383.22 11.1744 382.767 10.9957 382.219 10.9957H381.183V14.7131H382.326ZM409.882 11.3531H402.376V1.70218H435.296V11.3531H427.79V28.2959H409.882V11.3531Z" fill="white"/>
</svg>
