<svg width="437" height="35" viewBox="0 0 437 35" fill="none" xmlns="http://www.w3.org/2000/svg">
<path d="M18.1876 34.6383C14.2809 34.6383 11.0109 34.1463 8.37758 33.1624C5.74421 32.1785 3.77642 30.804 2.47421 29.0387C1.17199 27.2735 0.535355 25.19 0.564293 22.7881V22.7447H16.4947C16.5237 23.2945 16.596 23.7431 16.7117 24.0903C16.8564 24.4086 17.059 24.6691 17.3194 24.8717C17.5799 25.0453 17.9271 25.1321 18.3612 25.1321C18.7953 25.1321 19.1281 25.0019 19.3596 24.7414C19.5911 24.481 19.7068 24.2061 19.7068 23.9167C19.7068 23.5984 19.62 23.3524 19.4464 23.1788C19.2728 22.9762 18.9545 22.7881 18.4914 22.6145C18.0284 22.4119 17.2905 22.1659 16.2777 21.8766C16.1619 21.8476 16.0462 21.8187 15.9304 21.7897C15.8147 21.7608 15.6989 21.7319 15.5832 21.7029C15.3806 21.674 15.1925 21.6451 15.0189 21.6161C14.8742 21.5872 14.715 21.5582 14.5414 21.5293C10.7216 20.9795 7.81329 20.2416 5.81656 19.3155C3.84877 18.3895 2.51761 17.3043 1.8231 16.06C1.15752 14.8157 0.810267 13.2241 0.781329 11.2852C0.781329 9.20167 1.36009 7.3641 2.51761 5.77251C3.70408 4.15198 5.58505 2.8787 8.16054 1.95268C10.765 0.997724 14.1073 0.520245 18.1876 0.520245C24.062 0.520245 28.3449 1.56202 31.0361 3.64556C33.7563 5.7291 35.1453 8.56503 35.2032 12.1534H19.9239C19.8949 11.401 19.7502 10.8511 19.4898 10.5039C19.2583 10.1277 18.8387 9.93959 18.231 9.93959C17.9127 9.93959 17.6667 9.99747 17.4931 10.1132C17.3194 10.229 17.1892 10.3737 17.1024 10.5473C17.0156 10.7209 16.9722 10.8946 16.9722 11.0682V11.1116C16.9722 11.3431 17.0156 11.5457 17.1024 11.7193C17.1892 11.864 17.3629 12.0231 17.6233 12.1968C17.8837 12.3704 18.2599 12.5006 18.7519 12.5874C18.8098 12.6164 18.8676 12.6453 18.9255 12.6742C19.0123 12.6742 19.0702 12.6742 19.0991 12.6742C23.7871 13.2819 27.361 14.0777 29.8207 15.0616C32.2804 16.0455 33.9444 17.2175 34.8125 18.5776C35.7096 19.9088 36.1581 21.5727 36.1581 23.5694C36.1581 25.9424 35.4781 27.968 34.118 29.6464C32.7579 31.2959 30.7467 32.5402 28.0844 33.3794C25.4221 34.2187 22.1232 34.6383 18.1876 34.6383ZM38.4014 1.34498H56.9797L61.277 15.7127L61.4506 16.6243H61.494L61.6676 15.7127L65.9215 1.34498H84.5432V33.6399H69.698V19.3155L69.7848 17.449H69.698L69.3941 18.7078L66.1386 30.0805H56.8494L53.5071 18.7078L53.2467 17.449H53.1598L53.2032 19.3155V33.6399H38.4014V1.34498ZM106.753 34.6383C102.384 34.6383 98.7231 34.045 95.7714 32.8586C92.8197 31.6721 90.577 29.9213 89.0433 27.6063C87.5385 25.2913 86.7861 22.4409 86.7861 19.0551V16.06C86.7861 12.6742 87.5385 9.82384 89.0433 7.50879C90.577 5.19375 92.8197 3.45746 95.7714 2.29994C98.752 1.11348 102.413 0.520245 106.753 0.520245C111.094 0.520245 114.74 1.11348 117.692 2.29994C120.673 3.45746 122.915 5.19375 124.42 7.50879C125.954 9.82384 126.721 12.6742 126.721 16.06V19.0551C126.721 22.4698 125.954 25.3347 124.42 27.6497C122.915 29.9358 120.673 31.6721 117.692 32.8586C114.711 34.045 111.065 34.6383 106.753 34.6383ZM106.753 22.5711C107.187 22.5711 107.564 22.4698 107.882 22.2672C108.229 22.0357 108.475 21.7319 108.62 21.3557C108.794 20.9505 108.88 20.4441 108.88 19.8364V15.3221C108.88 14.7144 108.794 14.208 108.62 13.8028C108.446 13.3977 108.2 13.0938 107.882 12.8913C107.564 12.6887 107.187 12.5874 106.753 12.5874C106.29 12.5874 105.9 12.6887 105.581 12.8913C105.263 13.0938 105.017 13.3977 104.843 13.8028C104.699 14.208 104.626 14.7144 104.626 15.3221V19.8364C104.626 20.4441 104.699 20.9505 104.843 21.3557C105.017 21.7319 105.263 22.0357 105.581 22.2672C105.9 22.4698 106.29 22.5711 106.753 22.5711ZM128.988 1.34498H146.612V12.0665H146.916L149.563 1.34498H167.968L161.631 16.8847V17.1886L168.923 33.6399H150.084L146.916 22.7447H146.612V33.6399H128.988V1.34498ZM170.7 1.34498H201.649V11.5457H188.323V13.5858H200.13V21.2255H188.323V23.3524H202.17V33.6399H170.7V1.34498ZM222.458 1.34498H241.036L245.333 15.7127L245.507 16.6243H245.55L245.724 15.7127L249.978 1.34498H268.6V33.6399H253.754V19.3155L253.841 17.449H253.754L253.451 18.7078L250.195 30.0805H240.906L237.564 18.7078L237.303 17.449H237.216L237.26 19.3155V33.6399H222.458V1.34498ZM271.884 1.34498H302.834V11.5457H289.508V13.5858H301.314V21.2255H289.508V23.3524H303.355V33.6399H271.884V1.34498ZM342.568 34.6383C338.198 34.6383 334.537 34.045 331.586 32.8586C328.634 31.6721 326.391 29.9213 324.858 27.6063C323.353 25.2913 322.6 22.4409 322.6 19.0551V16.06C322.6 12.6742 323.353 9.82384 324.858 7.50879C326.391 5.19375 328.634 3.45746 331.586 2.29994C334.566 1.11348 338.227 0.520245 342.568 0.520245C346.908 0.520245 350.555 1.11348 353.506 2.29994C356.487 3.45746 358.73 5.19375 360.234 7.50879C361.768 9.82384 362.535 12.6742 362.535 16.06V19.0551C362.535 22.4698 361.768 25.3347 360.234 27.6497C358.73 29.9358 356.487 31.6721 353.506 32.8586C350.526 34.045 346.88 34.6383 342.568 34.6383ZM342.568 22.5711C343.002 22.5711 343.378 22.4698 343.696 22.2672C344.044 22.0357 344.29 21.7319 344.434 21.3557C344.608 20.9505 344.695 20.4441 344.695 19.8364V15.3221C344.695 14.7144 344.608 14.208 344.434 13.8028C344.261 13.3977 344.015 13.0938 343.696 12.8913C343.378 12.6887 343.002 12.5874 342.568 12.5874C342.105 12.5874 341.714 12.6887 341.396 12.8913C341.077 13.0938 340.831 13.3977 340.658 13.8028C340.513 14.208 340.441 14.7144 340.441 15.3221V19.8364C340.441 20.4441 340.513 20.9505 340.658 21.3557C340.831 21.7319 341.077 22.0357 341.396 22.2672C341.714 22.4698 342.105 22.5711 342.568 22.5711ZM364.803 1.34498H388.329C391.165 1.34498 393.668 1.8514 395.839 2.86423C398.038 3.87706 399.745 5.35291 400.961 7.29176C402.205 9.20167 402.827 11.5023 402.827 14.1935V14.5408C402.827 17.2609 402.234 19.6194 401.048 21.6161C399.89 23.5839 398.255 25.1032 396.143 26.1739C394.059 27.2446 391.643 27.7799 388.894 27.7799H382.426V33.6399H364.803V1.34498ZM383.468 17.232C384.076 17.232 384.553 17.0294 384.9 16.6243C385.276 16.2192 385.465 15.597 385.465 14.7578V14.4539C385.465 13.6147 385.276 12.9926 384.9 12.5874C384.524 12.1823 384.032 11.9797 383.424 11.9797H382.426V17.232H383.468ZM411.156 12.1534H403.603V1.34498H436.332V12.1534H428.736V33.6399H411.156V12.1534Z" fill="white"/>
</svg>
