<svg width="436" height="50" viewBox="0 0 436 50" fill="none" xmlns="http://www.w3.org/2000/svg">
<path d="M19.017 49.8006C15.0312 49.8006 11.6815 49.2282 8.96786 48.0833C6.25418 46.9385 4.17652 45.1577 2.73488 42.7408C1.33564 40.2815 0.636019 37.1438 0.636019 33.3277V33.2641H16.8545C16.8969 33.9849 16.9605 34.5997 17.0453 35.1086C17.1725 35.575 17.3845 35.9354 17.6813 36.1898C17.9781 36.4018 18.4021 36.5078 18.9534 36.5078C19.4198 36.5078 19.7802 36.3594 20.0346 36.0626C20.289 35.7234 20.4162 35.363 20.4162 34.9814C20.4162 34.4725 20.3102 34.0909 20.0982 33.8365C19.9286 33.5397 19.4622 33.2005 18.6989 32.8189C17.9357 32.4373 16.9181 31.9497 15.6461 31.3561C15.2644 31.1864 14.8404 30.9956 14.374 30.7836C13.95 30.5716 13.5048 30.3596 13.0384 30.1476C12.9112 30.0628 12.784 29.9992 12.6568 29.9568C12.5296 29.872 12.3812 29.8084 12.2116 29.766C9.07387 28.3668 6.6782 26.9887 5.02455 25.6319C3.4133 24.275 2.28967 22.791 1.65365 21.1798C1.06003 19.5685 0.742022 17.5544 0.699621 15.1376V15.074C0.699621 11.8939 1.44164 9.2014 2.92569 6.99654C4.40973 4.74927 6.50859 3.05322 9.22227 1.90839C11.9784 0.763554 15.1796 0.191137 18.8262 0.191137C24.5927 0.191137 28.9813 1.65398 31.9917 4.57967C35.0446 7.50535 36.5499 11.6395 36.5075 16.982H20.9886C20.9886 15.7524 20.7978 14.8832 20.4162 14.3744C20.0346 13.8655 19.4834 13.6111 18.7626 13.6111C18.4233 13.6111 18.1477 13.6747 17.9357 13.8019C17.7237 13.9291 17.5753 14.1199 17.4905 14.3744C17.4057 14.5864 17.3633 14.8408 17.3633 15.1376V15.2012C17.4057 15.5828 17.5329 15.922 17.7449 16.2188C17.9569 16.5156 18.2961 16.8336 18.7626 17.1728C19.2714 17.4696 19.9074 17.7877 20.6706 18.1269C20.713 18.1269 20.7978 18.1693 20.925 18.2541C21.0522 18.2965 21.1582 18.3177 21.243 18.3177C25.568 19.9713 28.8752 21.6038 31.1649 23.215C33.497 24.7839 35.087 26.5011 35.9351 28.3668C36.8255 30.19 37.2707 32.4585 37.2707 35.1722C37.2707 38.2251 36.4863 40.8751 34.9174 43.1224C33.391 45.3273 31.2497 47.0021 28.4936 48.1469C25.7376 49.2494 22.5787 49.8006 19.017 49.8006ZM39.5415 1.33597H59.0037L63.3922 23.9146L63.583 25.3775H63.7102L63.901 23.9146L68.3531 1.33597H87.8153V48.6558H71.6604V29.5116L71.8512 25.3139H71.724L71.406 26.5859L67.9079 43.2496H59.4489L55.9508 26.5859L55.6328 25.3139H55.5056L55.6964 29.5116V48.6558H39.5415V1.33597ZM109.22 49.8006C105.15 49.8006 101.736 49.0586 98.9804 47.5745C96.2667 46.0905 94.1891 43.8856 92.7474 40.9599C91.3482 38.0342 90.6486 34.4089 90.6486 30.084V19.9713C90.6486 15.604 91.3482 11.9575 92.7474 9.0318C94.1891 6.10611 96.2879 3.90124 99.044 2.4172C101.8 0.933158 105.171 0.191137 109.157 0.191137C113.227 0.191137 116.641 0.933158 119.397 2.4172C122.153 3.90124 124.23 6.10611 125.63 9.0318C127.071 11.9575 127.792 15.604 127.792 19.9713V30.084C127.792 34.4513 127.071 38.0979 125.63 41.0235C124.23 43.9068 122.153 46.0905 119.397 47.5745C116.683 49.0586 113.291 49.8006 109.22 49.8006ZM109.22 35.4266C109.602 35.4266 109.92 35.3418 110.174 35.1722C110.429 35.0026 110.62 34.727 110.747 34.3453C110.874 33.9637 110.938 33.4549 110.938 32.8189V17.2364C110.938 16.6428 110.874 16.1552 110.747 15.7736C110.62 15.3496 110.408 15.0528 110.111 14.8832C109.856 14.6712 109.56 14.5652 109.22 14.5652C108.881 14.5652 108.584 14.6712 108.33 14.8832C108.075 15.0528 107.863 15.3496 107.694 15.7736C107.567 16.1552 107.503 16.6428 107.503 17.2364V32.8189C107.503 33.4549 107.567 33.9637 107.694 34.3453C107.863 34.727 108.075 35.0026 108.33 35.1722C108.584 35.3418 108.881 35.4266 109.22 35.4266ZM130.659 1.33597H147.45V17.2364H147.768L151.584 1.33597H169.138L160.869 23.9146V24.2326L169.837 48.6558H152.092L147.768 31.3561H147.45V48.6558H130.659V1.33597ZM171.466 1.33597H201.168V15.2648H188.257V18.3813H199.768V31.2288H188.257V34.4089H201.804V48.6558H171.466V1.33597ZM223.142 1.33597H242.604L246.993 23.9146L247.184 25.3775H247.311L247.502 23.9146L251.954 1.33597H271.416V48.6558H255.261V29.5116L255.452 25.3139H255.325L255.007 26.5859L251.509 43.2496H243.05L239.551 26.5859L239.233 25.3139H239.106L239.297 29.5116V48.6558H223.142V1.33597ZM274.694 1.33597H304.397V15.2648H291.485V18.3813H302.997V31.2288H291.485V34.4089H305.033V48.6558H274.694V1.33597ZM344.498 49.8006C340.427 49.8006 337.014 49.0586 334.258 47.5745C331.544 46.0905 329.466 43.8856 328.025 40.9599C326.625 38.0342 325.926 34.4089 325.926 30.084V19.9713C325.926 15.604 326.625 11.9575 328.025 9.0318C329.466 6.10611 331.565 3.90124 334.321 2.4172C337.077 0.933158 340.448 0.191137 344.434 0.191137C348.504 0.191137 351.918 0.933158 354.674 2.4172C357.43 3.90124 359.508 6.10611 360.907 9.0318C362.348 11.9575 363.069 15.604 363.069 19.9713V30.084C363.069 34.4513 362.348 38.0979 360.907 41.0235C359.508 43.9068 357.43 46.0905 354.674 47.5745C351.96 49.0586 348.568 49.8006 344.498 49.8006ZM344.498 35.4266C344.879 35.4266 345.197 35.3418 345.452 35.1722C345.706 35.0026 345.897 34.727 346.024 34.3453C346.151 33.9637 346.215 33.4549 346.215 32.8189V17.2364C346.215 16.6428 346.151 16.1552 346.024 15.7736C345.897 15.3496 345.685 15.0528 345.388 14.8832C345.134 14.6712 344.837 14.5652 344.498 14.5652C344.158 14.5652 343.862 14.6712 343.607 14.8832C343.353 15.0528 343.141 15.3496 342.971 15.7736C342.844 16.1552 342.78 16.6428 342.78 17.2364V32.8189C342.78 33.4549 342.844 33.9637 342.971 34.3453C343.141 34.727 343.353 35.0026 343.607 35.1722C343.862 35.3418 344.158 35.4266 344.498 35.4266ZM365.936 1.33597H385.462C389.235 1.33597 392.394 2.01439 394.938 3.37123C397.525 4.68567 399.475 6.67853 400.79 9.34981C402.147 11.9787 402.825 15.286 402.825 19.2717V20.6709C402.825 24.7415 402.189 28.1548 400.917 30.9108C399.687 33.6245 397.928 35.6598 395.638 37.0166C393.348 38.3735 390.571 39.0519 387.306 39.0519H382.727V48.6558H365.936V1.33597ZM383.554 24.9323C384.402 24.9323 385.016 24.6355 385.398 24.0418C385.822 23.4482 386.034 22.3246 386.034 20.6709V19.6533C386.034 17.9997 385.822 16.8972 385.398 16.346C385.016 15.7524 384.402 15.4556 383.554 15.4556H382.727V24.9323H383.554ZM411.368 16.028H403.8V1.33597H435.728V16.028H428.159V48.6558H411.368V16.028Z" fill="white"/>
</svg>
