<svg width="439" height="117" viewBox="0 0 439 117" fill="none" xmlns="http://www.w3.org/2000/svg">
<path d="M19.1646 116.181C15.3418 116.181 12.0722 115.527 9.35597 114.219C6.63972 112.911 4.52708 110.95 3.01805 108.334C1.60963 105.618 0.905416 102.298 0.905416 98.3744V71.5137H17.5047V98.3744C17.5047 98.978 17.555 99.5313 17.6556 100.034C17.7562 100.537 17.9574 100.94 18.2592 101.242C18.561 101.443 18.9131 101.543 19.3155 101.543C19.718 101.543 20.0701 101.342 20.3719 100.94C20.6737 100.537 20.8246 100.034 20.8246 99.4307V72.1173C20.8246 70.6083 20.5731 69.3508 20.0701 68.3447C19.6677 67.3387 19.0137 66.4836 18.1083 65.7794C17.2029 64.9746 15.8448 64.0189 14.034 62.9122C13.8327 62.8116 13.5812 62.711 13.2794 62.6104C13.0782 62.4092 12.877 62.2583 12.6758 62.1577C12.5752 62.0571 12.4746 62.0068 12.374 62.0068C12.2734 61.9062 12.1728 61.8056 12.0722 61.705C9.35597 59.9948 7.19303 58.3349 5.5834 56.7252C4.07437 55.1156 2.91745 53.2042 2.11264 50.9909C1.30782 48.6771 0.905416 45.8099 0.905416 42.3895V17.4905C0.905416 13.9695 1.65993 11.0017 3.16896 8.58728C4.67798 6.07223 6.79062 4.16079 9.50687 2.85297C12.2231 1.54515 15.3921 0.891242 19.0137 0.891242C24.8486 0.891242 29.3757 2.50087 32.595 5.72012C35.8142 8.83878 37.3736 13.215 37.273 18.8487V42.9931H21.1264V18.8487C21.1264 17.6414 20.9755 16.8366 20.6737 16.4342C20.3719 15.9312 19.9192 15.6797 19.3155 15.6797C19.0137 15.6797 18.7119 15.7803 18.4101 15.9815C18.2089 16.0821 18.058 16.2833 17.9574 16.5851C17.8568 16.8869 17.8065 17.239 17.8065 17.6414V41.9368C17.8065 43.2446 18.0077 44.4015 18.4101 45.4075C18.8125 46.4136 19.3658 47.319 20.0701 48.1238C20.7743 48.828 21.73 49.5825 22.9372 50.3873C23.0378 50.4879 23.1384 50.5885 23.239 50.6891C23.4402 50.6891 23.5911 50.7394 23.6917 50.84C27.3134 52.7515 30.0799 54.6126 31.9914 56.4234C34.0034 58.2343 35.4621 60.3469 36.3676 62.7613C37.273 65.0752 37.7257 67.9926 37.7257 71.5137V99.5816C37.7257 103.002 36.9209 105.97 35.3112 108.485C33.8022 111 31.6393 112.911 28.8224 114.219C26.1062 115.527 22.8869 116.181 19.1646 116.181ZM40.1189 2.40027H61.3962L64.5651 47.9729L65.1687 63.8177H65.4706L66.0742 47.9729L69.2431 2.40027H90.5204V114.672H74.5247V87.0567L76.6374 37.7115H76.3355L75.4301 45.1057L70.9031 96.7145H59.8872L55.2092 45.1057L54.4547 37.7115H54.0019L56.2655 87.0567V114.672H40.1189V2.40027ZM111.872 116.181C107.948 116.181 104.578 115.426 101.761 113.917C99.0452 112.308 96.9829 109.994 95.5745 106.976C94.166 103.958 93.4618 100.286 93.4618 95.9599V21.1122C93.4618 16.7863 94.166 13.1144 95.5745 10.0963C96.9829 7.07825 99.0452 4.81471 101.761 3.30568C104.578 1.69605 107.948 0.891242 111.872 0.891242C115.695 0.891242 118.964 1.69605 121.681 3.30568C124.497 4.81471 126.61 7.07825 128.019 10.0963C129.528 13.1144 130.282 16.7863 130.282 21.1122V95.9599C130.282 100.286 129.528 103.958 128.019 106.976C126.61 109.994 124.497 112.308 121.681 113.917C118.964 115.426 115.695 116.181 111.872 116.181ZM111.872 101.091C112.174 101.091 112.425 100.99 112.626 100.789C112.928 100.588 113.129 100.286 113.23 99.8834C113.331 99.481 113.381 98.978 113.381 98.3744V18.5469C113.381 18.0438 113.331 17.5911 113.23 17.1887C113.129 16.7863 112.928 16.4845 112.626 16.2833C112.425 16.0821 112.174 15.9815 111.872 15.9815C111.57 15.9815 111.268 16.0821 110.967 16.2833C110.765 16.4845 110.564 16.7863 110.363 17.1887C110.262 17.5911 110.212 18.0438 110.212 18.5469V98.3744C110.212 98.978 110.262 99.481 110.363 99.8834C110.564 100.286 110.765 100.588 110.967 100.789C111.168 100.99 111.47 101.091 111.872 101.091ZM133.107 2.40027H150.008V50.3873H150.31L154.686 2.40027H172.341L164.193 56.7252V57.027L172.643 114.672H154.988L150.31 63.5159H150.008V114.672H133.107V2.40027ZM174.222 2.40027H202.441V17.3396H191.123V49.4819H201.233V63.8177H191.123V99.5816H202.893V114.672H174.222V2.40027ZM223.442 2.40027H244.719L247.888 47.9729L248.492 63.8177H248.794L249.397 47.9729L252.566 2.40027H273.844V114.672H257.848V87.0567L259.961 37.7115H259.659L258.753 45.1057L254.226 96.7145H243.21L238.532 45.1057L237.778 37.7115H237.325L239.589 87.0567V114.672H223.442V2.40027ZM276.936 2.40027H305.155V17.3396H293.837V49.4819H303.947V63.8177H293.837V99.5816H305.607V114.672H276.936V2.40027ZM344.415 116.181C340.492 116.181 337.122 115.426 334.305 113.917C331.589 112.308 329.526 109.994 328.118 106.976C326.709 103.958 326.005 100.286 326.005 95.9599V21.1122C326.005 16.7863 326.709 13.1144 328.118 10.0963C329.526 7.07825 331.589 4.81471 334.305 3.30568C337.122 1.69605 340.492 0.891242 344.415 0.891242C348.238 0.891242 351.508 1.69605 354.224 3.30568C357.041 4.81471 359.154 7.07825 360.562 10.0963C362.071 13.1144 362.825 16.7863 362.825 21.1122V95.9599C362.825 100.286 362.071 103.958 360.562 106.976C359.154 109.994 357.041 112.308 354.224 113.917C351.508 115.426 348.238 116.181 344.415 116.181ZM344.415 101.091C344.717 101.091 344.969 100.99 345.17 100.789C345.472 100.588 345.673 100.286 345.773 99.8834C345.874 99.481 345.924 98.978 345.924 98.3744V18.5469C345.924 18.0438 345.874 17.5911 345.773 17.1887C345.673 16.7863 345.472 16.4845 345.17 16.2833C344.969 16.0821 344.717 15.9815 344.415 15.9815C344.114 15.9815 343.812 16.0821 343.51 16.2833C343.309 16.4845 343.108 16.7863 342.906 17.1887C342.806 17.5911 342.755 18.0438 342.755 18.5469V98.3744C342.755 98.978 342.806 99.481 342.906 99.8834C343.108 100.286 343.309 100.588 343.51 100.789C343.711 100.99 344.013 101.091 344.415 101.091ZM365.65 2.40027H384.362C388.286 2.40027 391.605 3.10448 394.322 4.5129C397.038 5.92133 399.05 8.03397 400.358 10.8508C401.766 13.6677 402.47 17.0881 402.47 21.1122V63.2141C402.47 67.3387 401.766 70.8598 400.358 73.7772C399.05 76.5941 397.139 78.7067 394.624 80.1152C392.108 81.5236 389.09 82.2278 385.569 82.2278H382.551V114.672H365.65V2.40027ZM383.457 67.1375C384.161 67.1375 384.714 66.8357 385.117 66.2321C385.519 65.6285 385.72 64.6225 385.72 63.2141V21.414C385.72 19.905 385.519 18.899 385.117 18.396C384.714 17.7923 384.161 17.4905 383.457 17.4905H382.551V67.1375H383.457ZM413.142 17.9432H404.541V2.40027H438.645V17.9432H430.043V114.672H413.142V17.9432Z" fill="white"/>
</svg>
