<svg width="436" height="39" viewBox="0 0 436 39" fill="none" xmlns="http://www.w3.org/2000/svg">
<path d="M18.3887 38.3307C14.4425 38.3307 11.1432 37.8293 8.49082 36.8266C5.83845 35.7915 3.84917 34.3036 2.52299 32.3628C1.1968 30.4221 0.549881 28.077 0.582227 25.3276V25.2791H16.545C16.6097 25.8613 16.6905 26.3465 16.7876 26.7346C16.9169 27.1228 17.111 27.4139 17.3698 27.608C17.6609 27.7697 18.0329 27.8506 18.4857 27.8506C18.9386 27.8506 19.2782 27.7212 19.5046 27.4624C19.731 27.2037 19.8443 26.9125 19.8443 26.5891C19.8443 26.2333 19.7472 25.9422 19.5531 25.7157C19.3591 25.4893 19.0033 25.2629 18.4857 25.0365C17.9682 24.8101 17.0787 24.4704 15.8172 24.0176C15.6554 23.9529 15.4937 23.9044 15.332 23.872C15.2026 23.8073 15.057 23.7588 14.8953 23.7265C14.7336 23.6941 14.5719 23.6618 14.4101 23.6294C14.2807 23.5971 14.119 23.5647 13.9249 23.5324C10.3022 22.7561 7.53661 21.8504 5.6282 20.8153C3.75213 19.7803 2.47447 18.5996 1.7952 17.2734C1.14828 15.9149 0.808649 14.2006 0.776303 12.1304V12.0819C0.776303 9.753 1.39088 7.69903 2.62002 5.92001C3.88152 4.14098 5.82227 2.76627 8.4423 1.79589C11.0623 0.793169 14.3616 0.291807 18.3402 0.291807C24.1948 0.291807 28.513 1.44009 31.2947 3.73665C34.0765 6.03321 35.4835 9.20312 35.5159 13.2464H20.1839C20.1515 12.4054 19.9898 11.7908 19.6987 11.4026C19.4399 10.9821 19.0033 10.7719 18.3887 10.7719C18.0329 10.7719 17.7579 10.8366 17.5639 10.966C17.4021 11.063 17.2727 11.2086 17.1757 11.4026C17.111 11.5644 17.0787 11.7585 17.0787 11.9849V12.0334C17.0787 12.2922 17.1272 12.5186 17.2242 12.7127C17.3536 12.9067 17.58 13.117 17.9035 13.3434C18.227 13.5375 18.6636 13.7154 19.2135 13.8771C19.2782 13.8771 19.3429 13.8933 19.4076 13.9256C19.5046 13.958 19.5855 13.9742 19.6502 13.9742C24.2433 14.8475 27.7367 15.8502 30.1303 16.9823C32.5562 18.1144 34.2059 19.4244 35.0792 20.9124C35.9849 22.3679 36.4377 24.1955 36.4377 26.395C36.4377 28.9503 35.7261 31.1337 34.3029 32.9451C32.912 34.7241 30.8742 36.0664 28.1895 36.9721C25.5048 37.8778 22.2379 38.3307 18.3887 38.3307ZM38.6548 1.21367H57.7713L61.7498 18.0012L61.9439 19.1657H61.9924L62.1865 18.0012L66.1165 1.21367H85.3301V37.3118H70.1921V21.155L70.2407 18.5349H70.1436L69.7555 20.2331L66.5047 33.2847H57.4317L54.2294 20.2331L53.8413 18.5349H53.7442L53.7927 21.155V37.3118H38.6548V1.21367ZM107.275 38.3307C103.005 38.3307 99.415 37.6999 96.5038 36.4384C93.5927 35.1769 91.3932 33.317 89.9052 30.8587C88.4173 28.4005 87.6734 25.3599 87.6734 21.7372V16.9338C87.6734 13.2787 88.4173 10.222 89.9052 7.76372C91.4255 5.30543 93.6412 3.44554 96.5523 2.18404C99.4635 0.922553 103.038 0.291807 107.275 0.291807C111.545 0.291807 115.135 0.922553 118.046 2.18404C120.957 3.44554 123.157 5.30543 124.645 7.76372C126.165 10.222 126.925 13.2787 126.925 16.9338V21.7372C126.925 25.3923 126.165 28.449 124.645 30.9073C123.157 33.3332 120.957 35.1769 118.046 36.4384C115.135 37.6999 111.545 38.3307 107.275 38.3307ZM107.275 25.6672C107.728 25.6672 108.1 25.5702 108.391 25.3761C108.714 25.182 108.941 24.8909 109.07 24.5028C109.232 24.1146 109.313 23.6132 109.313 22.9987V15.6723C109.313 15.0901 109.232 14.6049 109.07 14.2167C108.941 13.7962 108.714 13.489 108.391 13.2949C108.1 13.0685 107.728 12.9553 107.275 12.9553C106.855 12.9553 106.499 13.0685 106.208 13.2949C105.916 13.489 105.69 13.7962 105.528 14.2167C105.367 14.6049 105.286 15.0901 105.286 15.6723V22.9987C105.286 23.6132 105.367 24.1146 105.528 24.5028C105.69 24.8909 105.916 25.182 106.208 25.3761C106.499 25.5702 106.855 25.6672 107.275 25.6672ZM129.344 1.21367H146.713V13.2464H147.053L150.013 1.21367H168.207L161.366 18.5349V18.8746L169.081 37.3118H150.498L147.053 24.7939H146.713V37.3118H129.344V1.21367ZM170.803 1.21367H201.418V12.373H188.172V14.6534H199.914V23.6294H188.172V26.0554H201.952V37.3118H170.803V1.21367ZM222.496 1.21367H241.613L245.591 18.0012L245.785 19.1657H245.834L246.028 18.0012L249.958 1.21367H269.171V37.3118H254.033V21.155L254.082 18.5349H253.985L253.597 20.2331L250.346 33.2847H241.273L238.071 20.2331L237.683 18.5349H237.586L237.634 21.155V37.3118H222.496V1.21367ZM272.437 1.21367H303.052V12.373H289.806V14.6534H301.548V23.6294H289.806V26.0554H303.586V37.3118H272.437V1.21367ZM342.81 38.3307C338.54 38.3307 334.95 37.6999 332.039 36.4384C329.128 35.1769 326.928 33.317 325.44 30.8587C323.952 28.4005 323.208 25.3599 323.208 21.7372V16.9338C323.208 13.2787 323.952 10.222 325.44 7.76372C326.96 5.30543 329.176 3.44554 332.087 2.18404C334.998 0.922553 338.573 0.291807 342.81 0.291807C347.08 0.291807 350.67 0.922553 353.581 2.18404C356.492 3.44554 358.692 5.30543 360.18 7.76372C361.7 10.222 362.46 13.2787 362.46 16.9338V21.7372C362.46 25.3923 361.7 28.449 360.18 30.9073C358.692 33.3332 356.492 35.1769 353.581 36.4384C350.67 37.6999 347.08 38.3307 342.81 38.3307ZM342.81 25.6672C343.263 25.6672 343.635 25.5702 343.926 25.3761C344.249 25.182 344.476 24.8909 344.605 24.5028C344.767 24.1146 344.848 23.6132 344.848 22.9987V15.6723C344.848 15.0901 344.767 14.6049 344.605 14.2167C344.476 13.7962 344.249 13.489 343.926 13.2949C343.635 13.0685 343.263 12.9553 342.81 12.9553C342.389 12.9553 342.034 13.0685 341.742 13.2949C341.451 13.489 341.225 13.7962 341.063 14.2167C340.901 14.6049 340.821 15.0901 340.821 15.6723V22.9987C340.821 23.6132 340.901 24.1146 341.063 24.5028C341.225 24.8909 341.451 25.182 341.742 25.3761C342.034 25.5702 342.389 25.6672 342.81 25.6672ZM364.878 1.21367H387.391C390.464 1.21367 393.133 1.76355 395.397 2.86331C397.693 3.96307 399.456 5.5642 400.685 7.66669C401.947 9.76918 402.578 12.3245 402.578 15.3327V15.9634C402.578 19.0363 401.979 21.6725 400.782 23.872C399.618 26.0392 397.952 27.6888 395.785 28.821C393.65 29.9531 391.143 30.5191 388.265 30.5191H382.248V37.3118H364.878V1.21367ZM383.267 19.0686C383.946 19.0686 384.464 18.8422 384.82 18.3894C385.208 17.9042 385.402 17.1441 385.402 16.109V15.6238C385.402 14.5887 385.208 13.8448 384.82 13.3919C384.432 12.9391 383.898 12.7127 383.219 12.7127H382.248V19.0686H383.267ZM410.94 12.7612H403.42V1.21367H435.928V12.7612H428.359V37.3118H410.94V12.7612Z" fill="white"/>
</svg>
