<svg width="438" height="80" viewBox="0 0 438 80" fill="none" xmlns="http://www.w3.org/2000/svg">
<path d="M19.1423 79.3377C15.2315 79.3377 11.9039 78.7202 9.15949 77.4852C6.48369 76.2502 4.39107 74.3291 2.88164 71.7219C1.44082 69.1147 0.72041 65.8214 0.72041 61.842V50.3154H17.1869V61.842C17.1869 62.5281 17.2212 63.1113 17.2898 63.5916C17.427 64.0718 17.6329 64.4492 17.9073 64.7236C18.2504 64.9295 18.662 65.0324 19.1423 65.0324C19.6226 65.0324 19.9999 64.8609 20.2744 64.5178C20.5488 64.1748 20.686 63.7631 20.686 63.2828V51.5504C20.686 50.5899 20.5145 49.8352 20.1715 49.2863C19.897 48.6688 19.3138 48.0856 18.4219 47.5367C17.5986 46.9192 16.4665 46.1988 15.0257 45.3755C14.6826 45.2383 14.3053 45.0667 13.8936 44.8609C13.4819 44.6551 13.0703 44.4493 12.6586 44.2434C12.59 44.1748 12.4871 44.1062 12.3499 44.0376C12.2127 43.969 12.0754 43.9004 11.9382 43.8318C9.05658 42.2537 6.82674 40.71 5.2487 39.2006C3.67066 37.6911 2.53859 35.9759 1.85248 34.0548C1.16638 32.1337 0.78902 29.7323 0.72041 26.8507V16.1475C0.72041 12.7169 1.47512 9.80099 2.98455 7.39962C4.56259 4.99826 6.72382 3.18008 9.46824 1.94509C12.2127 0.710106 15.403 0.092612 19.0394 0.092612C24.8027 0.092612 29.2624 1.67065 32.4184 4.82673C35.5745 7.9142 37.0839 12.271 36.9467 17.897V28.1886H21.2006V17.897C21.2006 16.5934 20.9948 15.7015 20.5831 15.2212C20.2401 14.7409 19.7255 14.5008 19.0394 14.5008C18.6963 14.5008 18.4219 14.5694 18.2161 14.7066C18.0102 14.8439 17.8387 15.0497 17.7015 15.3241C17.6329 15.5986 17.5986 15.9073 17.5986 16.2504V26.6448C17.5986 27.4682 17.7358 28.1886 18.0102 28.8061C18.3533 29.4236 18.8336 30.0068 19.4511 30.5556C20.0686 31.0359 20.8576 31.5505 21.8181 32.0994C21.8867 32.168 21.9896 32.2366 22.1269 32.3052C22.2641 32.3738 22.367 32.4081 22.4356 32.4081C26.4836 34.2606 29.5711 36.0788 31.698 37.8627C33.8249 39.5779 35.3344 41.499 36.2263 43.6259C37.1182 45.7529 37.5642 48.3601 37.5642 51.4475V63.4887C37.5642 66.782 36.7752 69.6293 35.1972 72.0306C33.6191 74.432 31.4579 76.2502 28.7135 77.4852C25.969 78.7202 22.7787 79.3377 19.1423 79.3377ZM40.039 1.43052H60.2105L64.2242 34.5694L64.6358 42.288H64.8417L65.1504 34.5694L69.1641 1.43052H89.4385V77.9998H73.1778V54.9467L74.207 31.0702H74.0012L73.4866 34.981L69.4729 67.0907H60.0046L55.888 34.981L55.4764 31.0702H55.1676L56.2997 54.9467V77.9998H40.039V1.43052ZM110.716 79.3377C106.668 79.3377 103.271 78.5829 100.527 77.0735C97.8511 75.4955 95.7928 73.197 94.3519 70.1782C92.9797 67.0907 92.2936 63.3514 92.2936 58.9604V20.4699C92.2936 16.0788 92.9797 12.3739 94.3519 9.35502C95.7928 6.26755 97.8511 3.9691 100.527 2.45967C103.271 0.881632 106.633 0.092612 110.613 0.092612C114.592 0.092612 117.954 0.881632 120.698 2.45967C123.443 3.9691 125.501 6.23325 126.873 9.2521C128.314 12.271 129.035 16.0102 129.035 20.4699V58.9604C129.035 63.42 128.314 67.1593 126.873 70.1782C125.501 73.197 123.443 75.4955 120.698 77.0735C117.954 78.5829 114.626 79.3377 110.716 79.3377ZM110.716 64.4149C110.99 64.4149 111.264 64.3463 111.539 64.2091C111.813 64.0032 111.985 63.7288 112.053 63.3857C112.191 62.9741 112.259 62.4252 112.259 61.7391V17.5883C112.259 17.0394 112.191 16.5934 112.053 16.2504C111.985 15.8387 111.813 15.53 111.539 15.3241C111.264 15.1183 110.99 15.0154 110.716 15.0154C110.372 15.0154 110.064 15.1183 109.789 15.3241C109.583 15.53 109.412 15.8387 109.275 16.2504C109.137 16.5934 109.069 17.0394 109.069 17.5883V61.7391C109.069 62.4252 109.137 62.9741 109.275 63.3857C109.412 63.7288 109.583 64.0032 109.789 64.2091C110.064 64.3463 110.372 64.4149 110.716 64.4149ZM132.1 1.43052H148.876V31.5848H149.081L153.301 1.43052H170.899L162.46 38.2743V38.5831L171.311 77.9998H153.713L149.081 45.5813H148.876V77.9998H132.1V1.43052ZM173.005 1.43052H201.925V16.1475H189.78V31.7906H200.69V45.7872H189.78V62.9741H202.542V77.9998H173.005V1.43052ZM223.559 1.43052H243.73L247.744 34.5694L248.155 42.288H248.361L248.67 34.5694L252.684 1.43052H272.958V77.9998H256.697V54.9467L257.726 31.0702H257.521L257.006 34.981L252.992 67.0907H243.524L239.408 34.981L238.996 31.0702H238.687L239.819 54.9467V77.9998H223.559V1.43052ZM276.122 1.43052H305.041V16.1475H292.897V31.7906H303.806V45.7872H292.897V62.9741H305.659V77.9998H276.122V1.43052ZM344.788 79.3377C340.74 79.3377 337.344 78.5829 334.6 77.0735C331.924 75.4955 329.866 73.197 328.425 70.1782C327.053 67.0907 326.366 63.3514 326.366 58.9604V20.4699C326.366 16.0788 327.053 12.3739 328.425 9.35502C329.866 6.26755 331.924 3.9691 334.6 2.45967C337.344 0.881632 340.706 0.092612 344.685 0.092612C348.665 0.092612 352.027 0.881632 354.771 2.45967C357.516 3.9691 359.574 6.23325 360.946 9.2521C362.387 12.271 363.107 16.0102 363.107 20.4699V58.9604C363.107 63.42 362.387 67.1593 360.946 70.1782C359.574 73.197 357.516 75.4955 354.771 77.0735C352.027 78.5829 348.699 79.3377 344.788 79.3377ZM344.788 64.4149C345.063 64.4149 345.337 64.3463 345.612 64.2091C345.886 64.0032 346.058 63.7288 346.126 63.3857C346.263 62.9741 346.332 62.4252 346.332 61.7391V17.5883C346.332 17.0394 346.263 16.5934 346.126 16.2504C346.058 15.8387 345.886 15.53 345.612 15.3241C345.337 15.1183 345.063 15.0154 344.788 15.0154C344.445 15.0154 344.137 15.1183 343.862 15.3241C343.656 15.53 343.485 15.8387 343.347 16.2504C343.21 16.5934 343.142 17.0394 343.142 17.5883V61.7391C343.142 62.4252 343.21 62.9741 343.347 63.3857C343.485 63.7288 343.656 64.0032 343.862 64.2091C344.137 64.3463 344.445 64.4149 344.788 64.4149ZM366.173 1.43052H384.904C388.883 1.43052 392.211 2.15092 394.887 3.59174C397.562 4.96395 399.552 7.05657 400.856 9.86959C402.228 12.614 402.914 16.0445 402.914 20.1612V39.0976C402.914 43.3515 402.262 46.9192 400.959 49.8009C399.655 52.6139 397.802 54.7408 395.401 56.1816C393 57.5538 390.084 58.24 386.653 58.24H382.948V77.9998H366.173V1.43052ZM383.772 43.4201C384.526 43.4201 385.11 43.1114 385.521 42.4939C385.933 41.8764 386.139 40.7443 386.139 39.0976V20.5728C386.139 18.8576 385.933 17.7255 385.521 17.1766C385.11 16.5591 384.526 16.2504 383.772 16.2504H382.948V43.4201H383.772ZM412.37 16.8679H404.343V1.43052H437.173V16.8679H429.145V77.9998H412.37V16.8679Z" fill="white"/>
</svg>
