<svg width="438" height="62" viewBox="0 0 438 62" fill="none" xmlns="http://www.w3.org/2000/svg">
<path d="M19.2473 61.5797C15.2309 61.5797 11.8665 60.9799 9.15418 59.7802C6.44183 58.5805 4.35541 56.7027 2.89491 54.1469C1.43442 51.5388 0.704168 48.2266 0.704168 44.2103V40.5329H17.0565V44.132C17.0565 44.9144 17.1087 45.5664 17.213 46.088C17.3695 46.5575 17.5781 46.9226 17.8389 47.1834C18.1519 47.3921 18.5952 47.4964 19.169 47.4964C19.5863 47.4964 19.9253 47.3399 20.1861 47.0269C20.4991 46.6618 20.6556 46.2706 20.6556 45.8533V42.176C20.6556 41.5501 20.5252 41.0545 20.2644 40.6894C20.0557 40.2721 19.5341 39.8288 18.6996 39.3593C17.9172 38.8899 16.8479 38.3161 15.4917 37.638C15.0744 37.4294 14.631 37.2207 14.1616 37.0121C13.6922 36.7513 13.2227 36.5166 12.7533 36.3079C12.5968 36.2036 12.4403 36.1254 12.2838 36.0732C12.1795 36.021 12.0752 35.9689 11.9709 35.9167C8.94554 34.3519 6.62439 32.8393 5.00742 31.3788C3.4426 29.9183 2.34723 28.3274 1.7213 26.6061C1.09537 24.8326 0.756329 22.6419 0.704168 20.0338V16.5912C0.704168 13.253 1.4605 10.4102 2.97315 8.06297C4.53797 5.66359 6.70264 3.86405 9.46715 2.66435C12.2317 1.46466 15.4135 0.864812 19.0125 0.864812C24.7502 0.864812 29.1838 2.40355 32.3135 5.48102C35.4431 8.5585 36.9558 12.9139 36.8515 18.5473V21.8334H21.2033V18.5473C21.2033 17.2432 20.9946 16.3304 20.5774 15.8088C20.2122 15.2872 19.6906 15.0264 19.0125 15.0264C18.6474 15.0264 18.3605 15.1047 18.1519 15.2611C17.9432 15.4176 17.7868 15.6263 17.6824 15.8871C17.5781 16.0957 17.526 16.3565 17.526 16.6695V20.0338C17.5781 20.5554 17.7346 21.0249 17.9954 21.4422C18.2562 21.8594 18.6474 22.2767 19.169 22.694C19.7428 23.0591 20.4469 23.4503 21.2815 23.8676C21.3337 23.9198 21.4119 23.972 21.5162 24.0241C21.6727 24.0763 21.8031 24.1284 21.9074 24.1806C26.0803 25.9541 29.2882 27.7014 31.5311 29.4227C33.8261 31.144 35.391 33.0218 36.2255 35.0561C37.1123 37.0382 37.5556 39.4636 37.5556 42.3325V46.1663C37.5556 49.3481 36.7732 52.1126 35.2084 54.4598C33.6436 56.807 31.4789 58.5805 28.7144 59.7802C25.9499 60.9799 22.7942 61.5797 19.2473 61.5797ZM39.923 2.11667H59.718L64.0995 28.875L64.3342 32.3176H64.4907L64.7254 28.875L69.1069 2.11667H88.9018V60.3279H72.5495V39.5158L73.0189 28.9533H72.8624L72.4712 30.9093L68.7939 52.9732H60.1092L56.3536 30.9093L56.0406 28.9533H55.8059L56.2754 39.5158V60.3279H39.923V2.11667ZM110.259 61.5797C106.243 61.5797 102.878 60.8234 100.166 59.3107C97.4537 57.7459 95.3934 55.4509 93.985 52.4256C92.5767 49.3481 91.8725 45.5925 91.8725 41.1589V21.2857C91.8725 16.852 92.5767 13.1225 93.985 10.0972C95.3934 7.01976 97.4537 4.7247 100.166 3.21204C102.878 1.64722 106.243 0.864812 110.259 0.864812C114.223 0.864812 117.588 1.64722 120.352 3.21204C123.117 4.7247 125.203 7.01976 126.611 10.0972C128.02 13.1225 128.724 16.852 128.724 21.2857V41.1589C128.724 45.6447 128.02 49.4002 126.611 52.4256C125.203 55.4509 123.117 57.7459 120.352 59.3107C117.64 60.8234 114.275 61.5797 110.259 61.5797ZM110.259 46.714C110.624 46.714 110.937 46.6357 111.198 46.4792C111.459 46.2706 111.641 45.9837 111.746 45.6186C111.902 45.2535 111.98 44.7579 111.98 44.132V18.3908C111.98 17.7648 111.902 17.2693 111.746 16.9042C111.589 16.4869 111.381 16.2 111.12 16.0435C110.911 15.8349 110.624 15.7306 110.259 15.7306C109.946 15.7306 109.659 15.8349 109.398 16.0435C109.19 16.2 109.007 16.4869 108.851 16.9042C108.694 17.2693 108.616 17.7648 108.616 18.3908V44.132C108.616 44.7579 108.668 45.2535 108.773 45.6186C108.929 45.9837 109.138 46.2706 109.398 46.4792C109.659 46.6357 109.946 46.714 110.259 46.714ZM131.688 2.11667H148.431V23.0852H148.744L152.813 2.11667H170.339L161.811 29.9704V30.3616L170.887 60.3279H153.282L148.744 37.5598H148.431V60.3279H131.688V2.11667ZM172.566 2.11667H201.984V16.6695H189.309V23.9459H200.654V37.638H189.309V45.3839H202.61V60.3279H172.566V2.11667ZM224.064 2.11667H243.859L248.241 28.875L248.475 32.3176H248.632L248.866 28.875L253.248 2.11667H273.043V60.3279H256.691V39.5158L257.16 28.9533H257.004L256.612 30.9093L252.935 52.9732H244.25L240.495 30.9093L240.182 28.9533H239.947L240.416 39.5158V60.3279H224.064V2.11667ZM276.327 2.11667H305.745V16.6695H293.07V23.9459H304.415V37.638H293.07V45.3839H306.371V60.3279H276.327V2.11667ZM345.899 61.5797C341.882 61.5797 338.518 60.8234 335.806 59.3107C333.093 57.7459 331.033 55.4509 329.625 52.4256C328.216 49.3481 327.512 45.5925 327.512 41.1589V21.2857C327.512 16.852 328.216 13.1225 329.625 10.0972C331.033 7.01976 333.093 4.7247 335.806 3.21204C338.518 1.64722 341.882 0.864812 345.899 0.864812C349.863 0.864812 353.227 1.64722 355.992 3.21204C358.756 4.7247 360.843 7.01976 362.251 10.0972C363.659 13.1225 364.363 16.852 364.363 21.2857V41.1589C364.363 45.6447 363.659 49.4002 362.251 52.4256C360.843 55.4509 358.756 57.7459 355.992 59.3107C353.279 60.8234 349.915 61.5797 345.899 61.5797ZM345.899 46.714C346.264 46.714 346.577 46.6357 346.838 46.4792C347.098 46.2706 347.281 45.9837 347.385 45.6186C347.542 45.2535 347.62 44.7579 347.62 44.132V18.3908C347.62 17.7648 347.542 17.2693 347.385 16.9042C347.229 16.4869 347.02 16.2 346.759 16.0435C346.551 15.8349 346.264 15.7306 345.899 15.7306C345.586 15.7306 345.299 15.8349 345.038 16.0435C344.829 16.2 344.647 16.4869 344.49 16.9042C344.334 17.2693 344.256 17.7648 344.256 18.3908V44.132C344.256 44.7579 344.308 45.2535 344.412 45.6186C344.569 45.9837 344.777 46.2706 345.038 46.4792C345.299 46.6357 345.586 46.714 345.899 46.714ZM367.327 2.11667H386.262C390.174 2.11667 393.46 2.82084 396.12 4.22917C398.78 5.58535 400.788 7.67177 402.145 10.4884C403.501 13.253 404.179 16.7216 404.179 20.8945V27.9362C404.179 32.1612 403.527 35.7081 402.223 38.5769C400.971 41.4457 399.171 43.5843 396.824 44.9927C394.477 46.401 391.608 47.1052 388.218 47.1052H384.071V60.3279H367.327V2.11667ZM384.932 32.3176C385.766 32.3176 386.392 32.0308 386.809 31.457C387.227 30.8311 387.435 29.6575 387.435 27.9362V21.2857C387.435 19.5644 387.227 18.4169 386.809 17.8431C386.392 17.2172 385.766 16.9042 384.932 16.9042H384.071V32.3176H384.932ZM412.947 17.5301H405.28V2.11667H437.515V17.5301H429.769V60.3279H412.947V17.5301Z" fill="white"/>
</svg>
